#N canvas 264 46 1138 832 16;
#X obj 221 96 receive buttonOn;
#X obj 439 98 receive buttonOff;
#X obj 263 321 osc~ 300;
#X obj 406 317 line~;
#X obj 265 407 *~;
#X obj 251 488 dac~;
#X obj 265 436 *~ 0.4;
#X msg 360 179 1 5;
#X msg 453 206 0 200;
#X connect 0 0 7 0;
#X connect 1 0 8 0;
#X connect 2 0 4 0;
#X connect 3 0 4 1;
#X connect 4 0 6 0;
#X connect 6 0 5 0;
#X connect 6 0 5 1;
#X connect 7 0 3 0;
#X connect 8 0 3 0;
