#N canvas 264 46 1138 832 16;
#X obj 261 720 dac~;
#X obj 261 600 *~;
#X obj 135 236 mtof;
#X obj 170 439 osc~;
#X obj 135 281 sig~;
#X obj 229 307 *~ 1.5;
#X obj 229 328 osc~;
#X floatatom 261 272 5 0 0 0 - - -;
#X obj 165 408 +~;
#X obj 220 361 *~ 20;
#X floatatom 332 286 5 0 0 0 - - -;
#X obj 138 184 random 20;
#X obj 254 219 / 10;
#X obj 257 166 bng 15 250 50 0 empty empty empty 17 7 0 10 -262144
-1 -1;
#X obj 330 230 random 400;
#X obj 330 251 + 100;
#X obj 383 156 bng 15 250 50 0 empty empty empty 17 7 0 10 -262144
-1 -1;
#X obj 137 162 bng 15 250 50 0 empty empty empty 17 7 0 10 -262144
-1 -1;
#X obj 254 199 random 200;
#X obj 236 101 bng 15 250 50 0 empty empty empty 17 7 0 10 -262144
-1 -1;
#X obj 236 68 loadbang;
#X obj 484 377 osc~ 1;
#X floatatom 493 345 5 0 0 0 - - -;
#X obj 137 213 + 70;
#X obj 504 188 random 100;
#X obj 504 217 / 20;
#X obj 494 155 bng 15 250 50 0 empty empty empty 17 7 0 10 -262144
-1 -1;
#X obj 504 246 + 1;
#X obj 236 667 *~;
#X obj 308 670 *~;
#X obj 339 622 adc~;
#X obj 484 419 clip~ 0 1;
#X connect 1 0 28 0;
#X connect 1 0 29 0;
#X connect 2 0 4 0;
#X connect 3 0 1 0;
#X connect 4 0 8 0;
#X connect 4 0 5 0;
#X connect 5 0 6 0;
#X connect 6 0 9 0;
#X connect 7 0 5 1;
#X connect 8 0 3 0;
#X connect 9 0 8 1;
#X connect 10 0 9 1;
#X connect 11 0 23 0;
#X connect 12 0 7 0;
#X connect 13 0 18 0;
#X connect 14 0 15 0;
#X connect 15 0 10 0;
#X connect 16 0 14 0;
#X connect 17 0 11 0;
#X connect 18 0 12 0;
#X connect 19 0 17 0;
#X connect 19 0 13 0;
#X connect 19 0 16 0;
#X connect 19 0 26 0;
#X connect 20 0 19 0;
#X connect 21 0 31 0;
#X connect 22 0 21 0;
#X connect 23 0 2 0;
#X connect 24 0 25 0;
#X connect 25 0 27 0;
#X connect 26 0 24 0;
#X connect 27 0 22 0;
#X connect 28 0 0 0;
#X connect 29 0 0 1;
#X connect 30 0 28 1;
#X connect 30 1 29 1;
#X connect 31 0 1 1;
