#N canvas 264 46 1138 832 16;
#X obj 73 47 receive currentSpeed;
#X obj 64 213 receive locationX;
#X obj 259 213 receive locationY;
#X obj 460 214 receive locationZ;
#X obj 67 380 receive rotationX;
#X obj 261 383 receive rotationY;
#X obj 472 384 receive rotationZ;
#X obj 843 220 receive collision;
#X text 56 187 -250 to 250;
#X text 447 183 -250 to 250;
#X text 264 184 0 to 6ish;
#X text 837 186 0 to around 20?;
#X text 76 18 0 to 1?;
#X text 263 349 0 to 360;
