#N canvas 179 23 1138 832 16;
#X obj 106 383 receive currentSpeed;
#X obj 499 480 receive locationX;
#X obj 259 213 receive locationY;
#X obj 460 214 receive locationZ;
#X obj 68 312 receive rotationX;
#X obj 831 433 receive rotationZ;
#X obj 843 220 receive collision;
#X text 491 454 -250 to 250;
#X text 447 183 -250 to 250;
#X text 264 184 0 to 6ish;
#X text 837 186 0 to around 20?;
#X text 76 18 0 to 1?;
#X obj 274 791 dac~;
#X obj 747 238 line~;
#X obj 763 116 bng 15 250 50 0 empty empty empty 17 7 0 10 -262144
-1 -1;
#X msg 743 178 1 5;
#X obj 836 99 bng 15 250 50 0 empty empty empty 17 7 0 10 -262144 -1
-1;
#X obj 274 747 *~ 0.4;
#X obj 147 484 mtof;
#X obj 182 687 osc~;
#X obj 147 529 sig~;
#X obj 241 555 *~ 1.5;
#X obj 241 576 osc~;
#X floatatom 273 520 5 0 0 0 - - -;
#X obj 177 656 +~;
#X obj 232 609 *~ 20;
#X floatatom 484 569 5 0 0 0 - - -;
#X msg 821 139 0 200;
#X obj 127 421 * 20;
#X obj 147 452 + 30;
#X obj 373 327 receive rotationY;
#X obj 482 534 + 250;
#X floatatom 41 384 5 0 0 0 - - -;
#X floatatom 449 488 5 0 0 0 - - -;
#X text 370 292 0 to 360;
#X floatatom 364 479 0 0 0 0 - - -;
#X floatatom 364 364 0 0 0 0 - - -;
#X obj 364 416 * 6.28319;
#X obj 364 390 / 360;
#X obj 364 451 cos;
#X obj 375 523 + 1;
#X obj 375 552 * 10;
#X connect 0 0 28 0;
#X connect 1 0 31 0;
#X connect 14 0 15 0;
#X connect 15 0 13 0;
#X connect 16 0 27 0;
#X connect 17 0 12 0;
#X connect 17 0 12 1;
#X connect 18 0 20 0;
#X connect 19 0 17 0;
#X connect 20 0 24 0;
#X connect 20 0 21 0;
#X connect 21 0 22 0;
#X connect 22 0 25 0;
#X connect 23 0 21 1;
#X connect 24 0 19 0;
#X connect 25 0 24 1;
#X connect 26 0 25 1;
#X connect 27 0 13 0;
#X connect 28 0 29 0;
#X connect 29 0 18 0;
#X connect 30 0 36 0;
#X connect 31 0 26 0;
#X connect 32 0 28 0;
#X connect 33 0 31 0;
#X connect 35 0 40 0;
#X connect 36 0 38 0;
#X connect 37 0 39 0;
#X connect 38 0 37 0;
#X connect 39 0 35 0;
#X connect 40 0 41 0;
#X connect 41 0 21 1;
