#N canvas 168 44 1138 832 16;
#X obj 73 47 receive currentSpeed;
#X obj 64 213 receive locationX;
#X obj 259 213 receive locationY;
#X obj 460 214 receive locationZ;
#X obj 67 380 receive rotationX;
#X obj 261 383 receive rotationY;
#X obj 472 384 receive rotationZ;
#X obj 843 220 receive collision;
#X text 56 187 -250 to 250;
#X text 447 183 -250 to 250;
#X text 264 184 0 to 6ish;
#X text 837 186 0 to around 20?;
#X text 263 349 0 to 360;
#X obj 63 146 print speed;
#X text 76 18 0 to 1;
#X obj 746 621 clone sound_pitch 4 crash;
#X obj 760 367 random 4;
#X obj 765 320 bng 15 250 50 0 empty empty empty 17 7 0 10 -262144
-1 -1;
#X msg 753 586 \$1 \$2;
#X obj 760 396 t f b;
#X obj 772 552 pack 0 0;
#X obj 819 457 random 50;
#X obj 819 486 + 50;
#X obj 819 515 / 100;
#X connect 0 0 13 0;
#X connect 16 0 19 0;
#X connect 17 0 16 0;
#X connect 18 0 15 0;
#X connect 19 0 20 0;
#X connect 19 1 21 0;
#X connect 20 0 18 0;
#X connect 21 0 22 0;
#X connect 22 0 23 0;
#X connect 23 0 20 1;
