#N canvas 9 23 1285 832 16;
#X obj 73 47 receive currentSpeed;
#X obj 72 566 receive locationX;
#X obj 267 566 receive locationY;
#X obj 468 567 receive locationZ;
#X obj 75 733 receive rotationX;
#X obj 269 736 receive rotationY;
#X obj 480 737 receive rotationZ;
#X obj 981 171 receive collision;
#X text 64 540 -250 to 250;
#X text 455 536 -250 to 250;
#X text 272 537 0 to 6ish;
#X text 975 137 0 to around 20?;
#X text 271 702 0 to 360;
#X obj 63 146 print speed;
#X text 76 18 0 to 1;
#X obj 859 271 bng 15 250 50 0 empty empty empty 17 7 0 10 -262144
-1 -1;
#X msg 847 537 \$1 \$2;
#X obj 854 347 t f b;
#X obj 866 503 pack 0 0;
#X obj 913 466 / 100;
#X obj 840 573 clone sound_pitch 3 meow;
#X obj 854 318 random 3;
#X obj 913 437 + 75;
#X obj 956 711 dac~;
#X obj 981 200 / 20;
#X obj 995 255 t b f;
#X obj 1073 396 pack 0 0;
#X msg 1077 511 \$1 \$2;
#X obj 913 408 random 200;
#X obj 350 104 soundfiler;
#N canvas 0 22 450 278 (subpatch) 0;
#X array purring 514002 float 2;
#X coords 0 1 514002 -1 200 140 1;
#X restore 760 25 graph;
#X obj 342 17 loadbang;
#X msg 331 62 read -resize sounds/purr.wav purring;
#X obj 466 149 unpack 0;
#X floatatom 346 144 5 0 0 0 - - -;
#X obj 412 178 /;
#X floatatom 412 207 5 0 0 0 - - -;
#X obj 411 238 * 1000;
#X floatatom 411 267 15 0 0 0 - - -;
#X obj 282 446 tabread4~ purring;
#X obj 299 372 phasor~;
#X floatatom 411 324 15 0 0 0 - - -;
#X obj 411 295 expr 1000/$f1;
#X obj 282 411 *~;
#X obj 266 500 dac~;
#X obj 299 321 *~;
#X floatatom 245 217 5 0 0 0 - - -;
#X obj 229 182 + 0.1;
#X msg 245 253 \$1 100;
#X obj 245 282 line~;
#X connect 0 0 13 0;
#X connect 0 0 47 0;
#X connect 7 0 24 0;
#X connect 15 0 21 0;
#X connect 16 0 20 0;
#X connect 17 0 18 0;
#X connect 17 1 28 0;
#X connect 18 0 16 0;
#X connect 19 0 18 1;
#X connect 20 0 23 0;
#X connect 20 0 23 1;
#X connect 21 0 17 0;
#X connect 21 0 26 0;
#X connect 22 0 19 0;
#X connect 24 0 25 0;
#X connect 25 0 15 0;
#X connect 25 1 26 1;
#X connect 26 0 27 0;
#X connect 27 0 20 1;
#X connect 28 0 22 0;
#X connect 29 0 34 0;
#X connect 29 1 33 0;
#X connect 31 0 32 0;
#X connect 32 0 29 0;
#X connect 33 0 35 1;
#X connect 34 0 35 0;
#X connect 34 0 43 1;
#X connect 35 0 36 0;
#X connect 36 0 37 0;
#X connect 37 0 38 0;
#X connect 38 0 42 0;
#X connect 39 0 44 0;
#X connect 39 0 44 1;
#X connect 40 0 43 0;
#X connect 41 0 45 1;
#X connect 42 0 41 0;
#X connect 43 0 39 0;
#X connect 45 0 40 0;
#X connect 46 0 48 0;
#X connect 47 0 46 0;
#X connect 48 0 49 0;
#X connect 49 0 45 0;
