#N canvas 157 75 1138 832 16;
#X obj 186 91 i \$1;
#X obj 204 149 pack f s;
#X obj 295 100 symbol \$2;
#X obj 224 14 loadbang;
#X obj 224 43 t b b;
#X msg 111 236 read -resize sounds/\$2\$1.wav \$2_\$1;
#X obj 111 265 soundfiler;
#N canvas 0 22 450 278 (subpatch) 0;
#X array \$2_\$1 25209 float 2;
#X coords 0 1 25209 -1 200 140 1;
#X restore 491 45 graph;
#X obj 209 308 unpack 0;
#X floatatom 209 337 5 0 0 0 - - -;
#X floatatom 111 335 5 0 0 0 - - -;
#X obj 579 206 inlet;
#X obj 171 450 /;
#X floatatom 171 479 5 0 0 0 - - -;
#X obj 325 24 bng 15 250 50 0 empty empty empty 17 7 0 10 -262144 -1
-1;
#X obj 171 507 * 1000;
#X obj 171 536 s \$0-lengthms;
#X obj 456 562 line~;
#X msg 457 520 1 \$1;
#X obj 458 483 f;
#X obj 456 449 bng 15 250 50 0 empty empty empty 17 7 0 10 -262144
-1 -1;
#X msg 627 463 0;
#X obj 530 371 t b b;
#X obj 28 443 s \$0-length;
#X obj 535 555 r \$0-length;
#X obj 467 605 *~;
#X obj 461 640 tabread4~ \$2_\$1;
#X obj 643 413 *;
#X obj 670 348 r \$0-lengthms;
#X floatatom 642 313 5 0 0 0 - - -;
#X obj 591 241 t b f;
#X obj 638 786 outlet~;
#X obj 833 249 inlet;
#X obj 648 683 *~;
#X obj 757 583 line~;
#X msg 782 493 \$1 10;
#X connect 0 0 1 0;
#X connect 1 0 5 0;
#X connect 2 0 1 1;
#X connect 3 0 4 0;
#X connect 4 0 0 0;
#X connect 4 1 2 0;
#X connect 5 0 6 0;
#X connect 6 0 10 0;
#X connect 6 1 8 0;
#X connect 8 0 9 0;
#X connect 9 0 12 1;
#X connect 10 0 12 0;
#X connect 10 0 23 0;
#X connect 11 0 30 0;
#X connect 12 0 13 0;
#X connect 13 0 15 0;
#X connect 14 0 4 0;
#X connect 15 0 16 0;
#X connect 17 0 25 0;
#X connect 18 0 17 0;
#X connect 19 0 18 0;
#X connect 20 0 19 0;
#X connect 21 0 17 0;
#X connect 22 0 20 0;
#X connect 22 1 21 0;
#X connect 24 0 25 1;
#X connect 25 0 26 0;
#X connect 26 0 33 0;
#X connect 27 0 19 1;
#X connect 28 0 27 1;
#X connect 29 0 27 0;
#X connect 30 0 22 0;
#X connect 30 1 29 0;
#X connect 32 0 35 0;
#X connect 33 0 31 0;
#X connect 34 0 33 1;
#X connect 35 0 34 0;
